<svg id="Layer_1" data-name="Layer 1" xmlns="http://www.w3.org/2000/svg" viewBox="0 0 109.34 282.59"><defs><style>.cls-1{fill:#c90;}</style></defs><title>key 4</title><path class="cls-1" d="M656.31,329.41l.13,11.4c0,13.2,17.94,12.85,22.88,12.51v3.81h-3v6h3v89h-3v6h3v4.05h-4v11.08h-23v11.87h8.86v-4h8.07v16h-8.07v-4h-8.86v12h23v6.07h4V525.3h8V511.19h4V462.13h-3.83v-4.05h2.87v-6h-2.87v-89h2.87v-6h-2.87v-3.95c1.54,0,22.81-.07,22.81-13.29l.12-10.85c16.77-4.24,27.31-17.36,27.31-34.61,0-19.83-15.17-35.89-35.14-35.89a36.64,36.64,0,0,0-8.24.94,11.77,11.77,0,0,0,1.05-4.86,12,12,0,0,0-24,0,11.77,11.77,0,0,0,1.51,5.78,36.78,36.78,0,0,0-8.32-.95c-20,0-36.16,15.87-36.16,35.44A35.61,35.61,0,0,0,656.31,329.41Zm45.83-63.26a28.28,28.28,0,1,1,0,56.55l.21,17.2a4.23,4.23,0,0,1-.88,2.68c-3.24,4.05-9.86,2.36-13,1.22a1.5,1.5,0,0,1-1-1.42v-8.29h8.84v-7.91h-8.84V310.51a2.15,2.15,0,0,0,.29.25A21.61,21.61,0,1,0,694,274.34a21.19,21.19,0,0,0-6.21,3.73,3.82,3.82,0,0,0-.32.27v-8.19q.93-.56,1.89-1A28.82,28.82,0,0,1,702.14,266.15ZM687.7,294.43a14,14,0,0,1,3.58-9.37,14.27,14.27,0,0,1,6.45-4.15,14.58,14.58,0,0,1,4.21-.62,14.13,14.13,0,1,1-10.67,23.49A14,14,0,0,1,687.7,294.43Zm-4.32-44.12a4.51,4.51,0,1,1-4.51,4.5A4.5,4.5,0,0,1,683.38,250.31Zm-19,15.47a28.26,28.26,0,0,1,12.42,2.86,26,26,0,0,1,2.54,1.4v8.12a24.19,24.19,0,0,0-7.06-4.07,21.59,21.59,0,1,0,6.66,36.68c.13-.1.27-.23.4-.35v15.76h-9.1v7.91h9.1v8.62a1,1,0,0,1-.6.91c-2.79,1.22-8.51,3-12.83-.13a4.08,4.08,0,0,1-1.6-3.31l.07-17.17a28.62,28.62,0,0,1,0-57.23Zm14.78,28.7a14.51,14.51,0,1,1-14.5-14,15,15,0,0,1,3.88.51,14.5,14.5,0,0,1,6.72,3.94A13.61,13.61,0,0,1,679.14,294.48Z" transform="translate(-628.33 -242.7)"/></svg>