<svg id="Layer_1" data-name="Layer 1" xmlns="http://www.w3.org/2000/svg" viewBox="0 0 136.63 269.34"><defs><style>.cls-1{fill:#c90;}</style></defs><title>key 1</title><path class="cls-1" d="M641.57,333.26a17.07,17.07,0,0,0,12,13.41h10.25s-2.27,5.32,4.18,6.84a14.84,14.84,0,0,0,11.13-6.65v7.71h-5.81v3.84h5.81v2.9h-5.81v3.85h5.81v1.94c-3.13.52-5.31,1.63-5.31,2.93s2.18,2.41,5.31,2.92v2.51c-3.13.51-5.31,1.63-5.31,2.92s2.18,2.41,5.31,2.93v28h-.94V446c-1.83.42-3,1.07-3,1.81s1.19,1.39,3,1.8v2.64c-2.62.73-4.37,2-4.37,3.55s1.75,2.81,4.37,3.55v1.73h-1v1h-3.8v8.59h-9.59c0,7.69-5.88,8.59-5.88,8.59h-4.75c-4.18,0-5.79-7.5-5.79-7.5h-8.54c.23,9.54,8.11,14.52,8.11,14.52-7.83,4.13-8.16,15-8.16,15h8.69c0-8.17,4.74-8.31,4.74-8.31h5.79c4.13,0,5.79,8.45,5.79,8.45h9.59v8.73h1.9v.95h2.94v6.65h.86v.95h7.78v-.95h1v-6.65h2.85v-.95h2v-48h-4v-1h-1v-1.71c2.65-.73,4.43-2.06,4.43-3.57s-1.78-2.84-4.43-3.57v-2.66c1.74-.41,2.85-1.05,2.85-1.76s-1.11-1.35-2.85-1.77V409.3h-.9v-28c3.14-.51,5.33-1.63,5.33-2.93s-2.19-2.41-5.33-2.93V373c3.14-.52,5.33-1.63,5.33-2.93s-2.19-2.42-5.33-2.93v-1.94h5.79v-3.85h-5.79v-2.9h5.79v-3.84h-5.79v-7.74s5.27,6.79,10.68,6.79c0,0,4.65-.14,4.65-6.84h10.54s11.63-5.36,11.63-13.38c0,0,26.94-7.49,26.94-35.08,0,0,1.27-32.15-38.35-34.94H703l-18.23-14h-3.67l-17.85,12.91h-8.86s-39.62,3.29-39.62,37.35C614.73,299.59,612.33,323.51,641.57,333.26Zm31.86,159.5h-5.79V480.28h5.79Zm17.53-170a8.1,8.1,0,1,1-8.1-8.1A8.1,8.1,0,0,1,691,322.73Zm-4-62.2,13.29,9.88h8.54C710,289.59,687,287.5,687,287.5Zm-.1,34.66c31.24,0,29.91-24,29.91-24,27.06,4.08,26.68,26.3,26.68,26.3.76,26.86-26,29.14-26,29.14,1.33,12.77-9.59,13.53-9.59,13.53H686.87V337.6a15.4,15.4,0,0,0-.09-29.76l1.18-.12c8.92,0,18.13-5,18.13-5L701.91,296c-3.84,3.85-15,3.8-15,3.8Zm-29.67-24.78h8.54l13.3-9.88v27S656.1,289.59,657.24,270.41Zm-34.53,28.8c0-25.57,26.83-26.59,26.83-26.59,0,23.17,29.62,22.41,29.62,22.41v4.75c-7.5,0-15.41-3.83-15.41-3.83L660,302c2.68,2.68,13.74,4.73,19.62,5.66a15.4,15.4,0,0,0-.45,30V340H657.26c-11.39-2.66-8.73-13.8-8.73-13.8C621.57,323.64,622.71,299.21,622.71,299.21Z" transform="translate(-614.68 -249.33)"/></svg>