<svg id="Layer_1" data-name="Layer 1" xmlns="http://www.w3.org/2000/svg" viewBox="0 0 110.96 271.65"><defs><style>.cls-1{fill:#c90;}</style></defs><title>key 2</title><path class="cls-1" d="M655.28,331.91l23.16-.09v3.6h-3.57v7.24h3.57v18.18h-3.66v67.21h1.84V429h1.82v13.68h-2.72v.9h-.9v10h1.85v.9h1.77v6.35h-3.62v13.64h-7.27v-4.54H649.4v5.48h7.23v4.54H649.4v4.53h12.67V489H649.4v4.49h7.28V498H649.4v4.58h18.15V498h7.27v11.79h2.7v.9h.9v8.18h.92v.91h7.27v-.91h.91v-8.18h.92v-.9h2.71V460.77h-3.64v-6.35h1.87v-.9h1.75v-10h-.9v-.9h-2.72V429h1.85v-.92h1.82V360.84h-3.67V342.66h3.71v-7.24h-3.71v-3.64l23.12,0,27.85-16.62v-50.4l-28.3-16.53H655.64l-28.12,16.71v50.49ZM674.82,488h-7.27v-3.6h7.27ZM730,269.71v41.93l-22.64,12.69H692.06l8.15-10.66H703l3.59,3.6,5.4-6.11-5-4.08,13.42-17.25-13.54-9.94,14.74-15.33ZM658.7,255.63h49.77l6.47,4.5-19.77,20.66,14.38,10.6-9,10.6-5.75-3.77L690.5,304,695,308.1l-11.14,13.6h-1.73L671.1,308l4.67-4.61-5-5.27L665.53,302l-9-10.78,14.26-11.08-19.83-20ZM636,269.23l8.26-4.67,14.86,15-13.54,10.54,13.66,16.54-5,4.91,5.51,6,4.8-4.68,9.34,11.74-15.21-.24L636,311.16Z" transform="translate(-627.52 -248.18)"/></svg>