<svg id="Layer_1" data-name="Layer 1" xmlns="http://www.w3.org/2000/svg" viewBox="0 0 100.6 274.35"><defs><style>.cls-1{fill:#c90;}</style></defs><title>key 3</title><path class="cls-1" d="M632.7,294.43c0,15,12,32.3,12,32.3,3.7,3.7-1.16,13.41-1.16,13.41l6.86,3.91.82-1.45a14.92,14.92,0,0,0,1.93-7.33v-3.79h22.38l3.23,2.92v1.35c-3.52.63-6,2-6,3.65s2.46,3,6,3.65v1.57c-3.52.63-6,2-6,3.65s2.46,3,6,3.65v2c-3.52.63-6,2-6,3.65s2.46,3,6,3.65v7.4h-5.27v4.22h1v6.47h1v8.59h1.26v26.6h-1.12v8.3H674.5v6.76h-1.12v5.35h5.41v9.79c-3.52.63-6,2-6,3.65s2.46,3,6,3.65v1.57c-3.52.63-6,2-6,3.65s2.46,3,6,3.65v2c-3.52.63-6,2-6,3.65s2.46,3,6,3.64v4h-3.23v.91H655.22v6.65h3.27c4.4,0,6.44,6.3,6.44,6.3h10.63v4.29H666a14.24,14.24,0,0,1-5,5.71,4.85,4.85,0,0,1-2.48.63h-4.3v7.56H666l9.57,0v4.28h3.16v10.7h8.66v-10.7h3.1V474.17h-3.1v-4.05c3.45-.65,5.84-2,5.84-3.62s-2.39-3-5.84-3.63v-2c3.45-.65,5.84-2,5.84-3.62s-2.39-3-5.84-3.63V452c3.45-.64,5.84-2,5.84-3.62s-2.39-3-5.84-3.62V434.9h5.42v-5.35h-1.27v-6.76h-.84v-8.3h-1.27v-26.6h1.27V379.3h.84v-6.47h1.27v-4.22h-5.42v-7.43c3.45-.64,5.84-2,5.84-3.62s-2.39-3-5.84-3.62v-2.05c3.45-.64,5.84-2,5.84-3.62s-2.39-3-5.84-3.62V343c3.45-.64,5.84-2,5.84-3.62s-2.39-3-5.84-3.62V334.4h.14l3-3h22.38c-.22,8.76,2.63,12.45,2.63,12.45l7-4.64c-2.08-3.6-1.82-7.93-1.44-10.33a5.71,5.71,0,0,1,1.46-2.93c11.05-12.18,10.75-30.44,10.75-30.44,0-17.42-12.35-31.78-12.35-31.78l6.23-6.22-5.33-5.33-6.29,6.28c-11.87-11.88-32-11.62-32-11.62-18.9,0-33.46,11.72-33.46,11.72l-6.92-6.91-5.59,5.59,6.91,6.92C632.86,275.8,632.7,294.43,632.7,294.43Zm76.64-29.82-10.77,10s-15.31-11.19-31.14,0l-10-10S682.21,244.08,709.34,264.61Zm-16.89,16.21s-8.13,9.07-8.34,8.86h-2.22L673,280.82S684.16,272.53,692.45,280.82Zm-41.86-10.19,9.77,9.76c-9.19,16.47-.64,29-.64,29h10.35c-12.35-11.82-2.54-23-2.54-23l15.73,15,15.1-15a13.52,13.52,0,0,1,4,9.71c0,6.55-5.59,13.72-5.59,13.72h9.71c8.34-15.2-1.06-30.19-1.06-30.19l9.71-9.29c21.54,25.23,0,51.91,0,51.91H689.83l-3.72-3.72h-5.43l-4.07,4.07H651.07C629.32,291.16,650.59,270.63,650.59,270.63Z" transform="translate(-632.7 -246.82)"/></svg>