<svg id="Layer_1" data-name="Layer 1" xmlns="http://www.w3.org/2000/svg" viewBox="0 0 115.3 274.65"><defs><style>.cls-1{fill:#c90;}</style></defs><title>key 7</title><path class="cls-1" d="M705.54,334.13l.73-.32s34.25-14.06,34.25-41.77c0,0,2.84-25.41-18.1-25.41,0,0-16.43-.71-27.18,15.66a3.78,3.78,0,0,1-3.69,1.66c-.43-.07-.88-.14-1.34-.24a3.51,3.51,0,0,1-2.78-3.44v-1.53h-1.11V271h1.09V269.3c2-.57,3.27-1.5,3.27-2.56s-1.3-2-3.27-2.55v-.95h1.1V261h-2.19V246.67h-6.66V261h-2.18v2.2h1.09v.95c-2,.56-3.27,1.49-3.27,2.55s1.3,2,3.27,2.56V271h1.09v7.78h-1v1.32a3.85,3.85,0,0,1-3.18,3.79c-.35.07-.7.12-1,.16a3.82,3.82,0,0,1-3.68-1.68c-10.76-16.41-27.21-15.7-27.21-15.7-20.94,0-18.1,25.41-18.1,25.41,0,27.71,34.25,41.77,34.25,41.77l.43.24v-5.58l5.89-3.27c-27.81-12.43-30.43-26.72-30.43-26.72C630.06,265.76,653,279,653,279c12.44,6,22.36,32.86,22.36,32.86v5.47h1v18.76h-1.2v2.29h1.2v1h2.32V343c-2.6.61-4.36,1.75-4.36,3.06s1.76,2.45,4.36,3.05V362.7c-1.46.5-2.4,1.25-2.4,2.09s.94,1.59,2.4,2.09v2.36c-1.46.5-2.4,1.25-2.4,2.09s.94,1.59,2.4,2.09v6.85h-1.2v5.35h-1.09v33.1h1.09V431h1.2v6.43h-2.3v4.43h2.3v2.22h-2.3v4.43h2.3v6.7h-2.29V465H672v7.75H663.2v-4.37h-11v7.69h5.45v12.11h-5.5V496h11v-4.47H672v7.68h4.41V508h2.18v12.13h1.09v1.16h6.62v-1.16h1.13V508h2.21V455.2h-2.19v-6.7h2.16v-4.43h-2.16v-2.22h2.16v-4.43h-2.16V431h1.18V418.72h1v-33.1h-1v-5.35h-1.18v-6.9c1.39-.5,2.27-1.23,2.27-2s-.88-1.54-2.27-2v-2.46c1.39-.5,2.27-1.23,2.27-2s-.88-1.54-2.27-2v-13.7c2.53-.61,4.23-1.74,4.23-3s-1.7-2.41-4.23-3v-3.63h2.21v-1h1.2v-2.29h-1.2V317.29h1v-5.47S700.6,285,713,279c0,0,22.9-13.2,17.34,19.52,0,0-2.62,14.29-30.43,26.72l5.89,3.27ZM670.88,486h-7.72v-6.62h7.72Z" transform="translate(-625.35 -246.67)"/></svg>