<svg id="Layer_1" data-name="Layer 1" xmlns="http://www.w3.org/2000/svg" viewBox="0 0 116.8 277.44"><defs><style>.cls-1{fill:#c90;}</style></defs><title>key 6</title><path class="cls-1" d="M624.62,295.06v34.33c0,24.14,19.47,23.94,20.28,24.45.29.18.68,0,1,0h14.14c5-.74,13.42-6.11,13.42-6.11h2.68v6.48h-1.85v7.53H679v1.74c-2.63.62-4.44,1.91-4.44,3.41s1.81,2.79,4.44,3.4V372c-1.57.54-2.59,1.42-2.59,2.41s1,1.88,2.59,2.41v7.31h-.92V387h-.93v4.68h-.93v7.47h-1v17.76h1v12.22h.93v7.4h.93v5.61H679v3.31c-1.57.39-2.59,1-2.59,1.75s1,1.37,2.59,1.76v2.63c-2.63.41-4.44,1.28-4.44,2.27s1.81,1.87,4.44,2.28V458h-4.6v16.84h-30v8.45h4.67v2l-4.68,7.42v8.45a.61.61,0,0,0,0,.2v7.2h10.3v.88h18.69v-8.34h-5.6V483.3h6.61v7.51h-1V517h1V517h.93v.84H679v4.84h7.43v-4.84h3V517h1.86V458h-4.82v-2c2.34-.44,3.92-1.25,3.92-2.19s-1.58-1.74-3.92-2.18v-2.79c1.41-.4,2.32-1,2.32-1.69s-.91-1.29-2.32-1.68v-3.38h1v-5.61h1v-7.4h.92V416.86h1V399.1h-1v-7.47h-.92V387h-1v-2.78h-1v-7.41c1.41-.54,2.32-1.37,2.32-2.31s-.91-1.76-2.32-2.31v-2c2.34-.66,3.92-1.88,3.92-3.27s-1.58-2.62-3.92-3.28v-1.87h4.78v-7.53h-1.92V347.9H692a21.75,21.75,0,0,0,16,6.29h4.57c29.85,0,28.84-25.26,28.84-25.26V291.55c0-21-21.29-18.05-21.29-18.05l-36.45-28.22h-2.13l-36.27,29.43C623.05,274.71,624.62,295.06,624.62,295.06Zm34.7,206H654.7v.06h-1V483.3h5.58Zm45.39-154.14c-1.94,0-5.7-2.21-8.13-3.79a9.72,9.72,0,0,0-5.26-1.53h-17.2a9.5,9.5,0,0,0-5.3,1.59c-4.49,3-11.26,4.42-11.26,4.42h-4l29-29,28.18,28.18C710.7,346.86,704.71,346.93,704.71,346.93Zm30.43-21.55a15,15,0,0,1-1.08,5.58c-4.21,10.51-11.17,13.66-13.6,14.47a1.54,1.54,0,0,1-1.56-.35c-4.35-4.12-27.69-28.27-27.69-28.27h43.93ZM718.4,282.27a7,7,0,0,1,2.25-1.48c2.65-1.06,7.92-1.37,13,8.83A12.73,12.73,0,0,1,735,295.4c0,5,0,14.67.14,14.67H691.21S713,287.5,718.4,282.27Zm-36.56-29h1.85l30.72,23.81-30.72,31.34h-2l-30.84-30.85Zm-51,41.88a7.91,7.91,0,0,1,.71-3.29c7.4-16.13,15.4-9.13,15.4-9.13,4.35,4.12,27.68,28.28,27.68,28.28H630.7C630.9,311,630.86,299.5,630.83,295.15Zm-.32,21.56h43.93S651.1,341,646.75,345.08a1.54,1.54,0,0,1-1.56.35c-2.43-.81-9.39-4-13.6-14.52a15.11,15.11,0,0,1-1.08-5.59Z" transform="translate(-624.6 -245.28)"/></svg>