<svg id="Layer_1" data-name="Layer 1" xmlns="http://www.w3.org/2000/svg" viewBox="0 0 135.2 281.92"><defs><style>.cls-1{fill:#c90;}</style></defs><title>key 5</title><path class="cls-1" d="M745.85,300.9l-8.5,4.7a57.13,57.13,0,0,0,.39-6.58c0-30.92-24.75-56-55.28-56s-55.29,25.06-55.29,56a56.87,56.87,0,0,0,.44,7l-8.45-5.76-3.76,6.52c8.43,4.43,14.87,13.18,17.71,17.52a55.31,55.31,0,0,0,5.67,9.06c4,9.39,3.62,21.59,3.62,21.59h7.22V344.05a54.62,54.62,0,0,0,23.93,10.22V363h1v1h2v1h-3v22.94h2.94V463h-1.94v1h-1v19h1v1h1.94v7.93h-4.94V485H648.53v14h5.06v-1h1v-5h4v6h5v3h-4v2h-1v2h-9V507h-1v7.91h22.95v-7h5v6h1v.94h2v10h6v-10h2V495h1V484h2v-1h1V464h-.95v-1h-2.11V387.93h3.11V365h-3v-1h2v-1h1v-8.74a54.72,54.72,0,0,0,23.15-9.76V355.1h8s-.6-13.74,4.33-23c.81-1.12,1.58-2.27,2.3-3.44h0a7.26,7.26,0,0,0,1.13-1.73c.85-1.88,4.5-7.41,20.12-19.11Zm-63.1-49.35A47.37,47.37,0,0,1,719.49,269H646A47.37,47.37,0,0,1,682.75,251.55Zm38.77,24.85-38.77,67L644,276.4ZM635.28,299a47.41,47.41,0,0,1,2.77-16l36.63,62.8A47.48,47.48,0,0,1,635.28,299Zm55.54,46.79L727.45,283a47.51,47.51,0,0,1-36.63,62.8Z" transform="translate(-615.4 -243.04)"/></svg>